<svg width="24" height="18" viewBox="0 0 24 18" fill="none" xmlns="http://www.w3.org/2000/svg">
<path d="M14.996 5.77006L13.079 3.88006C12.8677 3.6692 12.7 3.41872 12.5856 3.14297C12.4712 2.86721 12.4123 2.5716 12.4123 2.27306C12.4123 1.97451 12.4712 1.6789 12.5856 1.40314C12.7 1.12739 12.8677 0.876913 13.079 0.666055C13.5054 0.240185 14.0834 0.000976562 14.686 0.000976562C15.2886 0.000976562 15.8666 0.240185 16.293 0.666055L22.623 6.95806C23.0598 7.39421 23.4063 7.9122 23.6427 8.48239C23.8792 9.05258 24.0009 9.66379 24.0009 10.2811C24.0009 10.8983 23.8792 11.5095 23.6427 12.0797C23.4063 12.6499 23.0598 13.1679 22.623 13.6041C22.1418 14.0856 21.5617 14.4567 20.9228 14.6917C20.2839 14.9267 19.6015 15.02 18.923 14.9651C18.6928 15.5663 18.2855 16.0835 17.755 16.4483C17.2245 16.8131 16.5958 17.0083 15.952 17.0081H7.191C6.34644 17.0086 5.53615 16.6741 4.93792 16.0779C4.3397 15.4817 4.00239 14.6726 4 13.8281V11.9651C3.36946 12.056 2.72605 11.9732 2.13913 11.7254C1.55221 11.4776 1.04404 11.0744 0.669406 10.5591C0.294773 10.0438 0.0678828 9.43608 0.0131954 8.80136C-0.041492 8.16664 0.0780972 7.52903 0.359071 6.95727C0.640046 6.38551 1.07175 5.90128 1.60764 5.55678C2.14353 5.21228 2.76329 5.02058 3.4001 5.00235C4.03691 4.98411 4.66662 5.14004 5.22134 5.4533C5.77607 5.76657 6.23477 6.22531 6.548 6.78006C7.38225 6.27014 8.34126 6.00088 9.319 6.00206H13.824C14.13 6.00206 14.432 6.02806 14.725 6.07806C14.807 5.97406 14.898 5.87106 14.995 5.77106L14.996 5.77006ZM15.234 1.72806C15.0889 1.58309 14.8921 1.50166 14.687 1.50166C14.4819 1.50166 14.2851 1.58309 14.14 1.72806C14.0682 1.79944 14.0112 1.88429 13.9722 1.97774C13.9333 2.07118 13.9131 2.1714 13.9129 2.27264C13.9128 2.37388 13.9325 2.47417 13.9712 2.56776C14.0098 2.66135 14.0665 2.7464 14.138 2.81806H14.14L17.362 5.99806L16.358 6.57506C16.112 6.73505 15.848 7.04406 15.71 7.28806L15.421 7.80105L14.854 7.64206C14.5187 7.54865 14.1721 7.50155 13.824 7.50206H9.319C8.30815 7.50126 7.33828 7.90157 6.62228 8.61514C5.90627 9.3287 5.50265 10.2972 5.5 11.3081V13.8281C5.5 14.7521 6.258 15.5081 7.19 15.5081H12V15.1821C12 14.2541 11.247 13.5021 10.317 13.5021H8.746C8.54709 13.5021 8.35633 13.423 8.21567 13.2824C8.07502 13.1417 7.996 12.951 7.996 12.7521C7.996 12.5531 8.07502 12.3624 8.21567 12.2217C8.35633 12.0811 8.54709 12.0021 8.746 12.0021H10.317C10.7347 12.0019 11.1484 12.0841 11.5344 12.2438C11.9204 12.4036 12.2711 12.6378 12.5666 12.933C12.8621 13.2283 13.0965 13.5789 13.2565 13.9648C13.4165 14.3507 13.4989 14.7643 13.499 15.1821V15.5081H15.952C16.813 15.5081 17.522 14.8621 17.62 14.0311L17.719 13.1911L18.541 13.3901C19.0749 13.5199 19.6332 13.5101 20.1623 13.3618C20.6914 13.2134 21.1734 12.9315 21.562 12.5431C21.8593 12.2463 22.0952 11.8938 22.2562 11.5058C22.4172 11.1178 22.5001 10.7018 22.5002 10.2818C22.5003 9.86168 22.4175 9.4457 22.2567 9.05762C22.0959 8.66953 21.8602 8.31696 21.563 8.02006L15.233 1.72806H15.234ZM5.36 7.76506C5.21728 7.40394 4.97252 7.09218 4.65559 6.86782C4.33866 6.64346 3.96328 6.51622 3.57526 6.50161C3.18723 6.487 2.80334 6.58566 2.47045 6.78555C2.13755 6.98544 1.87004 7.27791 1.70056 7.62728C1.53108 7.97664 1.46697 8.36779 1.51605 8.75297C1.56513 9.13816 1.72527 9.50073 1.97694 9.79643C2.2286 10.0921 2.56091 10.3082 2.93329 10.4182C3.30568 10.5282 3.70204 10.5275 4.074 10.4161C4.24272 9.42865 4.68873 8.50957 5.36 7.76606V7.76506Z" fill="#F8F8F8"/>
</svg>
