<svg width="21" height="18" viewBox="0 0 21 18" fill="none" xmlns="http://www.w3.org/2000/svg">
<path d="M19.31 5.03L20.24 1.95C20.67 1.85 21 1.47 21 1C21 0.45 20.55 0 20 0C19.45 0 19 0.45 19 1C19 1.26 19.11 1.5 19.27 1.68L18.5 4.26L17.73 1.68C17.89 1.5 18 1.26 18 1C18 0.45 17.55 0 17 0C16.45 0 16 0.45 16 1C16 1.47 16.33 1.85 16.76 1.95L17.69 5.03C16.73 5.18 16 6 16 7V9.25C14.65 6.16 11.63 4 8.11 4C4.19 4 1 7.26 1 11.26C1 13.1 1.82 14.75 3.1 15.85L1.88 16C1.62401 16.028 1.38859 16.1534 1.2225 16.3501C1.05641 16.5469 0.972371 16.8001 0.987794 17.0571C1.00322 17.3142 1.11692 17.5555 1.30535 17.731C1.49378 17.9065 1.7425 18.0028 2 18H18.12C19.16 18 20 17.16 20 16.12V8.72C20.6 8.38 21 7.74 21 7C21 6 20.27 5.18 19.31 5.03ZM14.6 14.41L11.07 14.86C11.5 14.1 11.8 13.21 11.8 12.26C11.8 9.94 9.95 8.06 7.67 8.06C7.14 8.06 6.62 8.18 6.14 8.41C5.65 8.66 5.44 9.26 5.69 9.75C5.7476 9.86835 5.82799 9.97417 5.92658 10.0614C6.02516 10.1486 6.14 10.2155 6.26449 10.2582C6.38898 10.301 6.52069 10.3187 6.65205 10.3104C6.78342 10.3022 6.91185 10.268 7.03 10.21C7.23 10.11 7.45 10.06 7.67 10.06C8.85 10.06 9.8 11.04 9.8 12.26C9.8 13.92 8.5 15.27 6.89 15.27C4.75 15.27 3 13.47 3 11.26C3 8.36 5.29 6 8.11 6C11.77 6 14.75 9.06 14.75 12.82C14.75 13.36 14.69 13.89 14.6 14.41Z" fill="#F8F8F8"/>
</svg>
